<svg id="Layer_1" enable-background="new 0 0 511.99 511.99" height="512" viewBox="0 0 511.99 511.99" width="512" xmlns="http://www.w3.org/2000/svg"><g><path d="m171.89 38.864c-31.89 0-57.833 25.944-57.833 57.833v37.346h33.396c31.89 0 57.833-25.944 57.833-57.833v-37.346z" fill="#1fc979"/><path d="m86.224 38.864h-33.396v37.346c0 31.889 25.943 57.833 57.833 57.833h33.396v-37.346c0-31.889-25.943-57.833-57.833-57.833z" fill="#badb47"/><path d="m117.615 424.987 6.281 87.003h305.817l6.281-87.003z" fill="#bfebff"/><path d="m435.994 424.987h-159.19v87.003h152.909z" fill="#7ed7ff"/><path d="m118.053 222.722 15.684 217.265h286.135l15.684-217.265z" fill="#badb47"/><path d="m435.556 222.722h-158.752v217.265h143.068z" fill="#1fc979"/><path d="m119.781 454.987h314.047l25.335-350.944h-364.716zm286.135-30h-258.223l-13.518-187.265h285.259z" fill="#dff5ff"/><path d="m459.163 104.042h-182.359v133.68h142.63l-13.518 187.265h-129.112v30h157.024z" fill="#bfebff"/><path d="m306.681 314.661h68.096v68.096h-68.096z" fill="#1fc979"/><path d="m306.681 314.661h68.096v68.096h-68.096z" fill="#19a995"/><path d="m179.935 280.789h68.096v68.096h-68.096z" fill="#1fc979" transform="matrix(.94 -.342 .342 .94 -94.776 92.174)"/><path d="m420.623 12.345-27.342-12.345-51.363 114.043h32.902z" fill="#09a1e5"/><path d="m420.623 12.345-27.342-12.345-51.363 114.043h32.902z" fill="#077ccc"/><path d="m346.422 104.042-60.206 133.68h32.901l60.207-133.68z" fill="#077ccc"/><path d="m346.422 104.042-60.206 133.68h32.901l60.207-133.68z" fill="#0556b2"/></g></svg>